<svg width="69" height="61" viewBox="0 0 69 61" fill="none" xmlns="http://www.w3.org/2000/svg">
<g clip-path="url(#clip0_6183_309838)">
<path d="M34.502 47.8164C34.8161 47.8164 35.0703 47.5622 35.0703 47.2481C35.0703 46.9339 34.8161 46.6797 34.502 46.6797C34.1878 46.6797 33.9336 46.9339 33.9336 47.2481C33.9336 47.5622 34.1878 47.8164 34.502 47.8164Z" fill="#DCDFE8"/>
<path d="M19.2387 5.9891H18.2819V5.03237C18.2819 4.87201 18.1521 4.74219 17.9918 4.74219C17.8314 4.74219 17.7016 4.87201 17.7016 5.03237V5.9891H16.7394C16.579 5.9891 16.4492 6.11891 16.4492 6.27928C16.4492 6.43964 16.579 6.56946 16.7394 6.56946H17.7016V7.52619C17.7016 7.68655 17.8314 7.81637 17.9918 7.81637C18.1521 7.81637 18.2819 7.68655 18.2819 7.52619V6.56946H19.2387C19.399 6.56946 19.5289 6.43964 19.5289 6.27928C19.5289 6.11891 19.399 5.9891 19.2387 5.9891Z" fill="#ADB7C9"/>
<path d="M46.377 20.7639C41.5236 20.7639 36.5828 20.5664 31.9617 19.2791C27.4268 18.0213 23.2639 15.5799 19.5526 12.7555C17.1232 10.9173 14.9141 9.45004 11.7592 9.6704C8.67301 9.83731 5.7221 10.9893 3.33956 12.9584C-0.67499 16.4722 -0.0717178 22.9839 1.53519 27.5417C3.94719 34.4253 11.289 39.2209 17.5279 42.3224C24.7356 45.9235 32.6566 48.0169 40.5952 49.2169C47.5541 50.2784 56.4952 51.0431 62.5257 46.5028C68.0632 42.3213 69.5828 32.7889 68.2257 26.3515C67.8963 24.45 66.8839 22.734 65.3785 21.5264C61.4872 18.6791 55.6825 20.5817 51.3101 20.6744C49.6868 20.7093 48.0341 20.7497 46.3748 20.7617L46.377 20.7639Z" fill="#F5F7FA"/>
<path d="M38.5254 1.63673C38.8396 1.63673 39.0938 1.38255 39.0938 1.06836C39.0938 0.754182 38.8396 0.5 38.5254 0.5C38.2112 0.5 37.957 0.754182 37.957 1.06836C37.957 1.38255 38.2112 1.63673 38.5254 1.63673Z" fill="#DCDFE8"/>
<path d="M10.2449 46.8407H9.28821V45.8839C9.28821 45.7236 9.15839 45.5938 8.99803 45.5938C8.83767 45.5938 8.70785 45.7236 8.70785 45.8839V46.8407H7.75112C7.59076 46.8407 7.46094 46.9705 7.46094 47.1308C7.46094 47.2912 7.59076 47.421 7.75112 47.421H8.70785V48.3777C8.70785 48.5381 8.83767 48.6679 8.99803 48.6679C9.15839 48.6679 9.28821 48.5381 9.28821 48.3777V47.421H10.2449C10.4053 47.421 10.5351 47.2912 10.5351 47.1308C10.5351 46.9705 10.4053 46.8407 10.2449 46.8407Z" fill="#ADB7C9"/>
<path d="M34.7322 60.499C46.4889 60.499 56.0191 59.9045 56.0191 59.1714C56.0191 58.4383 46.4879 57.8438 34.7322 57.8438C22.9766 57.8438 13.4453 58.4383 13.4453 59.1714C13.4453 59.9045 22.9755 60.499 34.7322 60.499Z" fill="#F5F7FA"/>
<path d="M51.8429 44.9514H15.0727C14.8261 44.9514 14.5839 44.898 14.3603 44.7943C14.1367 44.6907 13.9392 44.5402 13.7799 44.3525C13.6207 44.1649 13.5039 43.9445 13.4374 43.7078C13.3709 43.4711 13.3578 43.2223 13.397 42.9791L18.0999 14.4605C18.1632 14.0634 18.3661 13.7023 18.6727 13.4416C18.9792 13.1809 19.3676 13.0391 19.7701 13.0391H56.5403C56.7858 13.0391 57.029 13.0925 57.2527 13.1962C57.4752 13.2998 57.6738 13.4503 57.833 13.638C57.9923 13.8256 58.1079 14.046 58.1734 14.2827C58.2388 14.5194 58.2519 14.7682 58.2116 15.0103L53.5316 43.5289C53.4661 43.9282 53.261 44.2903 52.9512 44.5522C52.6414 44.8129 52.2487 44.9536 51.8439 44.9503L51.8429 44.9514Z" fill="#DCDFE8"/>
<path d="M52.2976 12.2937L30.4718 2.54856C29.8281 2.26165 29.0743 2.54965 28.7863 3.19329L21.8689 18.6864C21.582 19.33 21.87 20.0838 22.5136 20.3718L44.3394 30.1169C44.9831 30.4038 45.738 30.1158 46.0249 29.4722L52.9423 13.9791C53.2303 13.3355 52.9412 12.5817 52.2976 12.2937Z" fill="white"/>
<path d="M44.8605 30.5185C44.6434 30.5185 44.4263 30.4727 44.2223 30.3822L22.3965 20.6371C22.0147 20.4669 21.7223 20.1571 21.5728 19.7665C21.4234 19.376 21.4354 18.9505 21.6056 18.5687L28.523 3.07563C28.8754 2.28691 29.8027 1.93236 30.5914 2.28473L52.4172 12.0298C52.799 12.2 53.0914 12.5098 53.2408 12.9004C53.3903 13.2909 53.3783 13.7164 53.2081 14.0982L46.2907 29.5913C46.1205 29.9731 45.8117 30.2655 45.4212 30.4149C45.239 30.4847 45.0503 30.5196 44.8616 30.5196L44.8605 30.5185ZM29.9543 2.72873C29.5768 2.72873 29.2157 2.94691 29.0521 3.31236L22.1347 18.8055C22.0277 19.0455 22.0201 19.3138 22.1139 19.5593C22.2077 19.8047 22.3921 20 22.6332 20.1069L44.459 29.852C44.699 29.9589 44.9674 29.9665 45.2139 29.8727C45.4594 29.7789 45.6547 29.5945 45.7616 29.3545L52.679 13.8615C52.787 13.6215 52.7936 13.3531 52.6997 13.1076C52.6059 12.8622 52.4216 12.6669 52.1805 12.56L30.3547 2.81382C30.2248 2.756 30.0885 2.72873 29.9543 2.72873Z" fill="#ADB7C9"/>
<path d="M41.3558 18.9121C41.3416 18.9121 41.3274 18.911 41.3132 18.9078C41.2074 18.8838 41.1398 18.779 41.1638 18.6721C41.3678 17.7525 41.2478 16.7838 40.8234 15.9427C40.4001 15.1016 39.6921 14.4274 38.8325 14.0445C37.9718 13.6616 36.9976 13.5874 36.09 13.835C35.1812 14.0827 34.3805 14.6423 33.834 15.4081C33.7707 15.4965 33.6474 15.5172 33.5591 15.454C33.4707 15.3907 33.45 15.2674 33.5132 15.179C34.1121 14.338 34.9903 13.726 35.9874 13.4543C36.9834 13.1827 38.0514 13.2645 38.9951 13.6845C39.9376 14.1045 40.7132 14.843 41.178 15.766C41.6427 16.6878 41.7747 17.7514 41.5511 18.7583C41.5303 18.85 41.4496 18.9132 41.3591 18.9132L41.3558 18.9121Z" fill="#ADB7C9"/>
<path d="M44.1095 14.4144C44.439 14.4144 44.7074 14.1471 44.7074 13.8166C44.7074 13.486 44.4401 13.2188 44.1095 13.2188C43.779 13.2188 43.5117 13.486 43.5117 13.8166C43.5117 14.1471 43.779 14.4144 44.1095 14.4144Z" fill="#ADB7C9"/>
<path d="M35.4572 10.555C35.7866 10.555 36.055 10.2877 36.055 9.95719C36.055 9.62665 35.7877 9.35938 35.4572 9.35938C35.1266 9.35938 34.8594 9.62665 34.8594 9.95719C34.8594 10.2877 35.1266 10.555 35.4572 10.555Z" fill="#ADB7C9"/>
<path d="M51.6817 44.938H14.7326C14.2832 44.9359 13.8523 44.757 13.5348 44.4384C13.2174 44.1199 13.0396 43.6889 13.0396 43.2395V17.1853C13.0341 16.9595 13.0745 16.7348 13.1563 16.5242C13.2392 16.3137 13.3625 16.1217 13.5206 15.9602C13.6788 15.7988 13.8665 15.6689 14.0748 15.5806C14.2832 15.4922 14.5068 15.4464 14.7326 15.4453H28.1912C28.5032 15.4464 28.8097 15.5337 29.0759 15.6973C29.3421 15.8609 29.5581 16.0944 29.6988 16.3726L31.6177 20.1297C31.7585 20.4079 31.9745 20.6424 32.2406 20.806C32.5068 20.9697 32.8134 21.0569 33.1254 21.0569H51.6817C52.1301 21.0569 52.561 21.2359 52.8796 21.5533C53.197 21.8708 53.3748 22.3017 53.3748 22.7511V43.2384C53.3748 43.6879 53.197 44.1188 52.8796 44.4373C52.5621 44.7559 52.1312 44.9359 51.6817 44.937V44.938Z" fill="white"/>
<path d="M51.683 45.2293H14.7339C14.2026 45.2272 13.7052 45.0199 13.331 44.6446C12.9568 44.2693 12.7506 43.7708 12.7506 43.2406V17.1864C12.7441 16.9279 12.7899 16.6672 12.8881 16.4195C12.9852 16.1719 13.1292 15.9493 13.3146 15.7584C13.5001 15.5675 13.7182 15.4181 13.9637 15.3144C14.2092 15.2108 14.4677 15.1573 14.7339 15.1562H28.1935C28.5601 15.1573 28.9179 15.2599 29.2299 15.4508C29.5419 15.6428 29.7939 15.9166 29.9597 16.2417L31.8786 19.9988C31.9964 20.2312 32.1742 20.4242 32.3957 20.5606C32.6161 20.6959 32.8702 20.7679 33.1288 20.769H51.6841C52.2132 20.769 52.7117 20.9752 53.087 21.3493C53.4612 21.7246 53.6673 22.2221 53.6673 22.7522V43.2395C53.6673 43.7697 53.4612 44.2682 53.087 44.6435C52.7139 45.0188 52.2153 45.2261 51.6852 45.2282H51.6841L51.683 45.2293ZM14.7339 15.7366C14.5462 15.7366 14.363 15.7748 14.1895 15.8479C14.0161 15.921 13.8612 16.0268 13.7302 16.1621C13.5993 16.2973 13.4968 16.4544 13.4281 16.6301C13.3593 16.8057 13.3266 16.9901 13.331 17.1788V43.2395C13.331 43.6148 13.4772 43.9682 13.7422 44.2344C14.0073 44.5006 14.3597 44.6479 14.7361 44.649H51.6841C52.0539 44.6479 52.4161 44.4962 52.6768 44.2344C52.9419 43.9682 53.0881 43.6159 53.0881 43.2395V22.7522C53.0881 22.3781 52.9419 22.0257 52.6768 21.7595C52.4117 21.4944 52.0593 21.3482 51.6841 21.3482H33.1277C32.7612 21.3482 32.4033 21.2457 32.0913 21.0537C31.7793 20.8617 31.5273 20.5879 31.3615 20.2617L29.4426 16.5046C29.3248 16.2733 29.1459 16.0792 28.9255 15.9439C28.7052 15.8075 28.451 15.7355 28.1924 15.7344H14.735L14.7339 15.7366Z" fill="#ADB7C9"/>
<path d="M45.9926 21.9453C43.8577 21.9442 41.7708 22.5759 39.9959 23.7617C38.221 24.9464 36.8366 26.6319 36.0184 28.6031C35.2002 30.5744 34.9864 32.7453 35.4021 34.8388C35.8177 36.9322 36.8453 38.8555 38.3541 40.3653C39.8628 41.8751 41.7861 42.9039 43.8795 43.3206C45.973 43.7373 48.1428 43.5246 50.1152 42.7075C52.0875 41.8904 53.7741 40.5082 54.9599 38.7333C56.1457 36.9584 56.7784 34.8715 56.7784 32.7377C56.7784 29.8762 55.6428 27.1326 53.6202 25.109C51.5977 23.0853 48.8541 21.9475 45.9926 21.9464V21.9453Z" fill="white"/>
<path d="M45.9963 43.8202C45.2719 43.8202 44.5465 43.7493 43.8254 43.6053C41.6686 43.1755 39.7061 42.1261 38.1515 40.5704C36.597 39.0148 35.5486 37.0522 35.1199 34.8955C34.6912 32.7388 34.9105 30.5242 35.7526 28.493C36.5948 26.4617 38.0075 24.7424 39.837 23.5206C41.6643 22.301 43.7915 21.6562 45.9897 21.6562H45.9952C48.9537 21.6573 51.7355 22.8115 53.8268 24.9039C55.9181 26.9962 57.0701 29.7781 57.0701 32.7377C57.0701 34.937 56.4243 37.0664 55.2025 38.8948C53.9806 40.7232 52.2603 42.1348 50.2279 42.9759C48.8741 43.5366 47.4395 43.8202 45.9952 43.8202H45.9963ZM45.9897 22.2355C43.9072 22.2355 41.8912 22.8464 40.1599 24.0028C38.4265 25.1602 37.0879 26.789 36.2894 28.7144C35.4908 30.6399 35.2835 32.7377 35.6894 34.7821C36.0952 36.8264 37.089 38.6864 38.5617 40.1602C40.0345 41.6341 41.8945 42.629 43.9388 43.0359C45.9832 43.4428 48.081 43.2366 50.0065 42.4392C51.933 41.6417 53.5628 40.3043 54.7203 38.5719C55.8788 36.8384 56.4908 34.8213 56.4908 32.7366C56.4908 29.9319 55.3988 27.2962 53.4166 25.313C51.4345 23.3297 48.7988 22.2366 45.9941 22.2355H45.9886H45.9897Z" fill="#ADB7C9"/>
<path d="M56.5458 43.7294C56.4716 43.7294 56.3975 43.7011 56.3407 43.6443L53.464 40.7687C53.3505 40.6553 53.3505 40.472 53.464 40.3585C53.5775 40.2451 53.7607 40.2451 53.8742 40.3585L56.7509 43.2353C56.8644 43.3487 56.8644 43.532 56.7509 43.6454C56.6942 43.7022 56.62 43.7305 56.5458 43.7305V43.7294Z" fill="#ADB7C9"/>
<path d="M56.2232 42.0432L55.3298 42.9781C54.9294 43.397 54.9447 44.0613 55.3625 44.4617L63.1167 51.8744C63.5356 52.2748 64.2 52.2595 64.6003 51.8406L65.4938 50.9057C65.8941 50.4868 65.8789 49.8224 65.46 49.4221L57.7058 42.0093C57.2869 41.609 56.6225 41.6243 56.2211 42.0432H56.2232Z" fill="#DCDFE8"/>
<path d="M61.9621 3.86089C61.8017 3.86089 61.6719 3.73107 61.6719 3.5707V1.07143C61.6719 0.911068 61.8017 0.78125 61.9621 0.78125C62.1224 0.78125 62.2522 0.911068 62.2522 1.07143V3.5707C62.2522 3.73107 62.1224 3.86089 61.9621 3.86089Z" fill="#ADB7C9"/>
<path d="M63.2113 2.61161H60.7121C60.5517 2.61161 60.4219 2.4818 60.4219 2.32143C60.4219 2.16107 60.5517 2.03125 60.7121 2.03125H63.2113C63.3717 2.03125 63.5015 2.16107 63.5015 2.32143C63.5015 2.4818 63.3717 2.61161 63.2113 2.61161Z" fill="#ADB7C9"/>
</g>
<defs>
<clipPath id="clip0_6183_309838">
<rect width="68.388" height="60" fill="white" transform="translate(0.304688 0.5)"/>
</clipPath>
</defs>
</svg>
